<?xml version="1.0" standalone="no"?>
<!DOCTYPE svg PUBLIC "-//W3C//DTD SVG 20010904//EN"
 "http://www.w3.org/TR/2001/REC-SVG-20010904/DTD/svg10.dtd">
<svg version="1.0" xmlns="http://www.w3.org/2000/svg"
 width="512.000000pt" height="512.000000pt" viewBox="0 0 512.000000 512.000000"
 preserveAspectRatio="xMidYMid meet">
<metadata>
Created by potrace 1.14, written by Peter Selinger 2001-2017
</metadata>
<g transform="translate(0.000000,512.000000) scale(0.100000,-0.100000)"
fill="#000000" stroke="none">
<path d="M2306 5111 c-3 -4 -36 -11 -74 -14 -104 -9 -244 -39 -447 -97 -176
-50 -455 -183 -635 -303 -273 -182 -544 -453 -727 -727 -121 -181 -256 -463
-304 -637 -5 -18 -13 -48 -18 -65 -38 -132 -70 -287 -78 -375 -3 -41 -10 -76
-14 -79 -12 -7 -12 -501 0 -508 4 -3 11 -38 14 -79 8 -88 40 -243 78 -374 5
-18 13 -48 18 -65 48 -175 183 -457 304 -638 183 -274 454 -545 727 -727 181
-120 459 -253 635 -303 203 -58 343 -88 447 -97 38 -3 71 -10 74 -14 7 -12
501 -12 508 0 3 4 36 11 74 14 104 9 244 39 447 97 130 37 323 122 505 223
303 168 652 496 858 808 121 184 253 459 302 634 58 203 88 343 97 447 3 38
10 71 14 74 12 7 12 501 0 508 -4 3 -11 36 -14 74 -9 104 -39 244 -97 447 -50
176 -183 455 -303 635 -183 274 -454 545 -727 727 -180 120 -460 254 -635 303
-16 5 -46 13 -65 19 -140 40 -288 70 -377 78 -41 3 -76 10 -79 14 -7 12 -501
12 -508 0z m644 -1408 c89 -26 289 -143 308 -180 5 -10 6 -215 1 -488 -9 -593
-22 -694 -124 -955 -57 -146 -85 -195 -110 -195 -22 0 -22 -4 -6 115 11 75 9
99 -22 270 -16 92 -28 96 -112 45 -74 -44 -122 -46 -197 -7 -64 33 -148 111
-148 138 0 43 14 49 137 56 182 10 282 35 297 73 3 9 6 197 6 418 0 474 7 441
-125 575 -47 48 -85 93 -85 101 0 8 8 23 17 33 14 16 27 19 73 15 30 -2 71 -9
90 -14z m-641 -235 c151 -74 237 -206 229 -350 -2 -44 -11 -89 -23 -113 -28
-57 -101 -127 -167 -158 -50 -24 -69 -27 -157 -27 -56 0 -103 4 -106 10 -3 6
-13 10 -22 10 -64 0 -225 127 -267 212 -36 72 -37 189 -2 263 25 55 98 127
148 149 18 8 44 19 58 24 14 6 74 11 134 11 103 1 112 -1 175 -31z m359 -678
c18 -11 37 -32 43 -46 13 -35 -5 -90 -34 -106 -33 -19 -107 -37 -152 -38 -22
0 -67 -7 -100 -15 -33 -8 -75 -15 -92 -15 -40 0 -40 -5 -3 -50 38 -43 38 -71
1 -146 -16 -32 -45 -93 -64 -134 -36 -80 -80 -127 -154 -165 -21 -11 -55 -30
-75 -42 -37 -22 -68 -30 -68 -16 0 3 14 35 31 70 39 79 58 188 59 326 0 95 -2
107 -17 107 -24 0 -96 -26 -146 -52 -68 -35 -129 -29 -223 22 -134 72 -172
108 -160 154 9 36 47 46 174 46 64 0 155 7 202 15 47 8 103 15 124 15 22 0 65
4 95 10 31 5 92 15 136 21 44 7 103 16 130 21 28 4 78 12 113 17 35 5 66 12
69 15 14 13 80 5 111 -14z m-254 -797 c69 -18 129 -55 160 -96 18 -24 22 -47
26 -148 3 -83 9 -122 18 -128 7 -4 34 -4 60 1 26 4 65 11 87 14 64 9 187 37
284 65 48 14 80 7 119 -26 39 -33 48 -74 26 -117 -35 -68 -61 -81 -299 -151
-68 -20 -194 -15 -240 10 -58 31 -118 95 -190 203 -34 52 -97 129 -139 170
-78 76 -117 137 -109 169 12 48 94 63 197 34z"/>
<path d="M2071 3286 c-18 -6 -51 -27 -72 -44 -32 -27 -39 -40 -39 -68 0 -44
23 -79 74 -112 35 -23 52 -26 121 -27 71 0 85 3 122 27 69 45 82 97 40 159
-45 68 -157 98 -246 65z"/>
</g>
</svg>
